<svg xmlns="http://www.w3.org/2000/svg" viewBox="0 0 32 32">
  <!-- Background -->
  <rect width="32" height="32" rx="8" fill="#111114"/>
  <!-- Open book — left page -->
  <path d="M5 9 C5 9 9.5 8 15 9 L15 23 C9.5 22 5 23 5 23 Z"
        fill="#1a1a20" stroke="#3b82f6" stroke-width="1.4" stroke-linejoin="round"/>
  <!-- Open book — right page -->
  <path d="M27 9 C27 9 22.5 8 17 9 L17 23 C22.5 22 27 23 27 23 Z"
        fill="#1a1a20" stroke="#3b82f6" stroke-width="1.4" stroke-linejoin="round"/>
  <!-- Spine -->
  <line x1="16" y1="9" x2="16" y2="23" stroke="#3b82f6" stroke-width="1.6"/>
  <!-- Text lines — left page -->
  <line x1="7.5" y1="13"  x2="13" y2="12.5" stroke="#3b82f6" stroke-width="0.9" opacity="0.55"/>
  <line x1="7.5" y1="16"  x2="13" y2="15.5" stroke="#3b82f6" stroke-width="0.9" opacity="0.55"/>
  <line x1="7.5" y1="19"  x2="13" y2="18.5" stroke="#3b82f6" stroke-width="0.9" opacity="0.55"/>
  <!-- Text lines — right page -->
  <line x1="19" y1="12.5" x2="24.5" y2="13"  stroke="#3b82f6" stroke-width="0.9" opacity="0.55"/>
  <line x1="19" y1="15.5" x2="24.5" y2="16"  stroke="#3b82f6" stroke-width="0.9" opacity="0.55"/>
  <line x1="19" y1="18.5" x2="24.5" y2="19"  stroke="#3b82f6" stroke-width="0.9" opacity="0.55"/>
</svg>
